<?xml version="1.0" standalone="no"?>
<!DOCTYPE svg PUBLIC "-//W3C//DTD SVG 20010904//EN"
 "http://www.w3.org/TR/2001/REC-SVG-20010904/DTD/svg10.dtd">
<svg version="1.0" xmlns="http://www.w3.org/2000/svg"
 width="230pt" height="230pt" style="color: #7D1C3F" viewBox="0 0 1280.000000 1024.000000"
 preserveAspectRatio="xMidYMid meet">
<metadata>
Created by potrace 1.15, written by Peter Selinger 2001-2017
</metadata>
<g transform="translate(0.000000,1024.000000) scale(0.100000,-0.100000)"
fill="#000000" stroke="none">
<path d="M7695 9594 c-108 -25 -145 -38 -135 -44 8 -5 0 -12 -21 -19 -43 -15
-50 -13 -19 4 56 32 3 11 -128 -50 -228 -107 -390 -201 -495 -288 -51 -42
-161 -173 -205 -245 -15 -24 -52 -73 -82 -110 -31 -37 -72 -94 -91 -127 -19
-33 -44 -73 -54 -90 -30 -49 -1 -15 37 42 19 29 38 50 42 46 4 -4 5 -1 2 7 -4
8 5 29 20 45 17 21 22 23 14 8 -5 -12 -15 -25 -20 -28 -6 -3 -10 -11 -10 -16
0 -6 5 -7 11 -4 5 4 -19 -41 -55 -100 -36 -59 -64 -110 -62 -114 3 -4 0 -13
-6 -21 -8 -12 -9 -12 -4 3 9 27 -2 20 -20 -14 -11 -21 -18 -28 -23 -20 -8 12
-48 -68 -56 -109 -2 -10 -10 -31 -18 -47 -55 -107 -141 -352 -131 -376 3 -10
2 -17 -4 -17 -5 0 -22 -36 -36 -79 -14 -44 -32 -95 -40 -115 -13 -31 -13 -35
2 -41 9 -3 13 -3 10 1 -4 4 -2 16 4 28 7 11 11 25 10 30 -4 14 27 86 49 114
10 14 24 43 30 66 6 22 14 43 19 46 4 3 14 19 23 35 27 50 19 12 -14 -66 -51
-123 -102 -263 -105 -289 -1 -14 -3 -37 -3 -52 -1 -16 -6 -28 -12 -28 -6 0 -8
9 -4 20 4 12 2 20 -6 20 -8 0 -9 -10 -5 -31 4 -19 0 -42 -10 -62 -9 -17 -18
-53 -20 -81 -3 -33 -13 -64 -35 -98 -17 -27 -29 -51 -26 -54 3 -3 12 7 21 23
8 16 22 36 32 44 11 9 7 -2 -9 -28 -15 -24 -27 -47 -27 -52 0 -5 -10 -22 -23
-38 -41 -49 -43 -72 -3 -34 44 42 47 36 6 -10 -40 -46 -38 -57 4 -25 19 14 40
26 47 26 20 0 -63 -80 -89 -87 -17 -4 -20 -8 -11 -14 7 -4 29 1 50 12 21 10
43 19 49 19 12 0 -101 -88 -169 -132 -25 -15 -41 -28 -35 -28 5 0 0 -7 -10
-15 -14 -11 -16 -15 -5 -15 10 -1 9 -5 -5 -15 -18 -13 -18 -15 -3 -15 14 0 16
-4 7 -19 -5 -11 -17 -26 -25 -34 -13 -13 -11 -16 11 -21 13 -4 33 -2 44 4 26
14 29 13 23 -9 -3 -11 -12 -22 -22 -25 -9 -3 14 -3 51 -1 77 5 102 -10 68 -40
-11 -10 -17 -22 -14 -26 3 -5 -2 -12 -11 -15 -14 -6 -14 -8 2 -19 9 -7 24 -10
32 -7 9 3 12 1 8 -5 -5 -8 10 -11 45 -9 30 1 52 6 51 12 -1 5 7 10 17 11 15 1
10 -13 -30 -80 -40 -68 -57 -87 -102 -114 -29 -17 -93 -66 -143 -108 -49 -43
-131 -109 -181 -147 l-91 -68 -44 17 c-58 22 -213 22 -289 1 -97 -28 -135 -31
-150 -13 -16 20 -110 85 -158 109 -32 16 -32 16 -42 -9 -5 -14 -20 -29 -33
-34 -39 -15 -87 -67 -87 -94 0 -14 -8 -32 -18 -39 -29 -21 -52 -60 -52 -89 0
-24 -5 -27 -62 -38 -173 -34 -376 -126 -477 -217 -110 -100 -160 -234 -265
-706 -44 -198 -71 -354 -90 -533 -25 -228 -88 -512 -223 -1000 -129 -469 -211
-692 -304 -834 -43 -66 -118 -151 -258 -294 -228 -235 -272 -289 -491 -612
-90 -132 -221 -318 -292 -412 -192 -258 -760 -934 -943 -1123 -88 -91 -175
-184 -194 -207 l-33 -43 420 0 419 0 184 158 c172 147 663 573 934 811 66 58
170 151 230 206 61 56 185 167 276 247 91 80 205 188 253 239 148 157 271 359
350 574 52 139 188 478 196 488 3 4 14 -38 24 -94 71 -402 184 -805 346 -1229
43 -113 86 -235 95 -269 l16 -64 -35 -29 c-27 -22 -36 -37 -36 -61 0 -18 -3
-48 -6 -68 -6 -35 -8 -37 -55 -42 -107 -13 -334 -120 -418 -197 -41 -38 -52
-42 -184 -76 -56 -14 -133 -36 -172 -50 -38 -13 -112 -30 -163 -37 -103 -15
-98 -18 -135 54 -46 86 -153 114 -215 56 -15 -13 -65 -44 -112 -68 -47 -24
-107 -64 -135 -89 -27 -25 -75 -62 -105 -82 -30 -19 -88 -63 -128 -97 -41 -34
-102 -80 -137 -102 -35 -22 -92 -71 -125 -110 l-62 -69 4446 0 c2445 0 4446 3
4446 6 0 3 -22 31 -48 62 -27 31 -71 88 -98 127 -70 99 -237 270 -361 367 -59
46 -141 112 -182 148 -154 133 -169 143 -397 300 -61 42 -146 104 -190 137
-219 166 -499 329 -736 426 -281 115 -384 156 -423 166 -93 25 -245 6 -385
-48 -41 -16 -105 -36 -142 -44 -63 -15 -70 -15 -125 3 -115 37 -362 100 -394
100 l-32 0 6 208 c6 233 19 324 79 557 47 182 71 224 144 243 66 18 121 65
135 114 6 26 25 57 46 77 20 19 42 50 50 69 13 32 13 39 -3 73 -17 38 -17 39
10 90 22 43 25 59 20 99 l-6 48 38 -1 c22 0 44 -4 49 -8 17 -12 75 21 91 52 8
16 12 42 9 58 -3 19 1 37 15 53 20 26 27 83 16 129 -5 21 -2 28 14 32 25 6 26
44 4 102 -21 52 -21 77 0 154 14 49 16 72 8 102 -9 35 -7 42 19 76 16 20 32
47 35 60 13 49 44 28 224 -153 331 -333 1096 -986 1363 -1164 123 -81 541
-300 665 -347 137 -52 376 -71 475 -37 82 28 145 111 194 254 15 45 18 85 17
225 -2 417 -106 872 -283 1240 -153 318 -635 1198 -731 1335 -10 14 -40 68
-66 120 -46 88 -49 99 -43 145 8 57 -14 272 -36 357 -8 31 -28 87 -44 123
l-30 66 21 77 c36 135 23 366 -23 408 -21 19 -87 21 -119 4 -16 -9 -21 -3 -40
56 -12 36 -36 81 -52 100 -26 29 -36 34 -75 34 -34 0 -53 7 -77 26 -17 14 -62
48 -100 75 -58 41 -76 49 -113 49 -96 0 -132 -52 -187 -270 -27 -110 -35 -129
-40 -105 -3 17 -2 82 3 145 8 97 14 126 42 185 17 39 45 81 61 93 37 31 80
116 80 159 0 46 -26 83 -59 83 -49 0 -185 -102 -258 -192 -37 -45 -73 -96 -82
-112 -9 -17 -16 -32 -17 -33 -2 -2 -77 24 -93 32 -1 0 4 32 13 70 8 39 14 95
13 125 -2 52 8 82 46 150 8 14 19 83 25 155 40 460 43 529 26 686 -16 142 -25
183 -27 118 -1 -32 -2 -31 -15 16 -8 28 -23 93 -34 146 -21 104 -41 162 -91
261 -155 309 -417 523 -745 609 -105 28 -129 31 -204 25 -113 -8 -134 -8 -138
4 -10 29 -57 70 -103 89 -44 19 -74 23 -213 26 -88 2 -170 2 -181 -1z m18 -21
c-7 -2 -21 -2 -30 0 -10 3 -4 5 12 5 17 0 24 -2 18 -5z m-1332 -1146 c-10 -9
-11 -8 -5 6 3 10 9 15 12 12 3 -3 0 -11 -7 -18z m25 -9 c-9 -12 -16 -29 -16
-36 0 -22 -103 -208 -108 -194 -6 18 125 268 135 258 3 -3 -2 -15 -11 -28z
m3021 -95 c-3 -10 -5 -2 -5 17 0 19 2 27 5 18 2 -10 2 -26 0 -35z m10 -65 c-3
-7 -5 -2 -5 12 0 14 2 19 5 13 2 -7 2 -19 0 -25z m-3170 -135 c-9 -21 -28 -73
-43 -116 -32 -92 -44 -97 -15 -6 26 78 64 169 70 163 2 -2 -3 -21 -12 -41z
m34 -40 c-12 -20 -14 -14 -5 12 4 9 9 14 11 11 3 -2 0 -13 -6 -23z m-20 -46
c-10 -9 -11 -8 -5 6 3 10 9 15 12 12 3 -3 0 -11 -7 -18z m-216 -903 c-43 -34
-57 -29 -16 6 19 16 37 27 40 24 3 -3 -7 -17 -24 -30z m3883 -397 c-39 -75
-51 -54 -18 29 18 43 25 52 36 43 11 -9 8 -22 -18 -72z m-3868 -32 c-7 -8 -18
-15 -24 -15 -6 0 -2 7 8 15 25 19 32 19 16 0z m1498 -420 c-3 -3 -9 2 -12 12
-6 14 -5 15 5 6 7 -7 10 -15 7 -18z m459 -52 c-3 -10 -5 -4 -5 12 0 17 2 24 5
18 2 -7 2 -21 0 -30z m-452 -33 c0 -15 5 -24 13 -22 7 1 12 -8 12 -23 0 -14
-2 -25 -5 -25 -12 0 -56 104 -50 119 6 14 8 14 18 -4 7 -11 12 -31 12 -45z
m-205 -47 c0 -18 -11 -16 -36 8 -20 18 -21 25 -11 52 l11 32 18 -40 c9 -22 18
-46 18 -52z m809 -33 c7 -12 5 -16 -8 -17 -20 -2 -43 31 -47 66 -3 24 -2 24
22 -5 13 -16 28 -36 33 -44z m181 16 c0 -12 -5 -7 -19 24 -11 24 -11 24 3 6 9
-11 16 -24 16 -30z m-816 -36 c7 -24 6 -24 -8 -6 -9 11 -16 29 -16 40 1 17 2
18 9 6 5 -8 12 -26 15 -40z m26 -92 c13 -27 21 -51 17 -54 -3 -3 -26 11 -51
31 -48 39 -59 72 -34 99 15 16 32 -4 68 -76z m320 56 c0 -43 26 -53 35 -13 8
34 13 35 54 12 31 -18 40 -33 21 -33 -15 0 -12 -26 5 -40 13 -11 15 -7 15 25
0 44 8 40 25 -10 15 -42 15 -42 -112 -51 -74 -5 -109 -12 -145 -30 -75 -38
-172 -28 -161 16 6 22 6 21 30 -4 36 -39 39 -31 4 13 -17 21 -30 49 -30 62 l2
24 4 -23 c2 -12 9 -20 14 -17 5 4 9 -1 9 -10 0 -9 5 -13 10 -10 6 3 10 0 10
-7 1 -7 7 2 15 20 16 37 18 37 50 16 21 -14 24 -14 34 3 6 11 11 13 11 5 0
-28 19 0 25 38 7 40 7 41 25 20 15 -18 18 -18 24 -4 3 9 4 19 1 23 -2 4 2 8
10 8 10 0 15 -11 15 -33z m930 -25 c0 -6 -4 -7 -10 -4 -5 3 -10 11 -10 16 0 6
5 7 10 4 6 -3 10 -11 10 -16z m-682 -36 c12 -2 22 3 22 10 1 8 5 7 13 -3 7 -9
23 -15 36 -14 22 1 51 -16 51 -29 0 -3 -16 -1 -35 3 -19 4 -55 7 -81 6 -49 -2
-62 9 -49 42 6 14 8 15 14 2 3 -8 16 -16 29 -17z m403 -55 c1 -17 2 -19 6 -5
5 20 23 23 23 3 0 -19 -25 -27 -39 -13 -14 14 -14 37 -1 37 6 0 11 -10 11 -22z
m-177 -10 c18 -29 -3 -33 -30 -6 -26 25 -26 25 -4 24 13 0 28 -9 34 -18z m401
2 c3 -5 1 -10 -4 -10 -6 0 -11 5 -11 10 0 6 2 10 4 10 3 0 8 -4 11 -10z m-146
-17 c8 -13 10 -14 11 -4 0 23 59 -42 71 -78 15 -42 7 -47 -38 -28 -21 9 -53
19 -70 22 -18 4 -37 14 -43 23 -7 13 -9 13 -10 3 0 -8 -3 -12 -6 -8 -3 3 -3
15 1 28 6 16 9 18 16 8 6 -10 9 -9 15 6 16 46 37 56 53 28z m204 -3 c10 0 16
-3 14 -7 -2 -5 9 -19 26 -33 17 -14 27 -19 23 -11 -7 11 -6 12 5 5 8 -4 24 -7
36 -6 28 4 82 -55 106 -116 10 -26 29 -58 42 -72 13 -14 40 -55 60 -92 39 -72
59 -95 26 -30 -10 20 -26 55 -35 77 l-16 40 31 -37 c33 -41 59 -43 33 -2 -32
48 -3 22 62 -56 37 -45 69 -79 71 -76 3 3 -7 26 -23 52 -16 25 -36 59 -44 76
-9 16 -19 26 -23 22 -4 -4 -7 1 -7 11 0 14 17 3 63 -43 176 -174 149 -106 -47
116 l-21 23 27 -3 c15 -2 30 -7 34 -11 4 -4 14 -7 22 -7 12 0 12 3 1 18 -16
20 32 -20 121 -103 35 -33 55 -49 45 -36 -11 14 -15 22 -10 20 6 -3 24 -11 40
-19 17 -8 48 -31 70 -52 27 -25 44 -35 54 -29 9 6 10 11 2 15 -6 4 -11 14 -11
22 0 10 13 3 37 -20 21 -19 40 -33 42 -30 7 6 -51 62 -68 66 -13 3 -29 15
-106 85 -36 32 -37 33 -2 4 48 -40 59 -40 21 0 l-29 31 25 -7 c14 -4 29 -11
34 -16 6 -5 15 -9 20 -9 6 0 1 8 -10 18 -39 32 -97 103 -79 96 13 -5 16 -4 11
4 -13 22 5 12 64 -33 79 -61 126 -117 182 -216 26 -46 78 -127 116 -181 77
-108 80 -113 193 -433 69 -197 195 -642 184 -653 -6 -7 -299 264 -404 374 -58
60 -169 186 -247 280 -255 307 -702 763 -807 823 -31 18 -57 38 -57 44 0 7 -3
22 -6 34 -6 21 -2 21 62 -13 38 -20 75 -41 82 -47 8 -6 12 -6 12 3 0 9 7 7 20
-5 11 -10 23 -15 27 -12 3 4 -18 31 -48 59 -52 50 -89 98 -89 115 0 4 5 2 12
-5 7 -7 20 -12 31 -12z m-428 -39 c-10 -9 -24 21 -17 37 4 12 7 10 14 -8 5
-13 6 -25 3 -29z m38 9 c3 -11 1 -20 -4 -20 -5 0 -9 9 -9 20 0 11 2 20 4 20 2
0 6 -9 9 -20z m87 -16 c0 -17 -36 -19 -46 -2 -4 6 -3 8 3 5 6 -4 14 0 17 9 7
18 26 10 26 -12z m915 -74 c10 -11 14 -20 9 -20 -5 0 -15 9 -22 20 -7 11 -11
20 -9 20 2 0 12 -9 22 -20z m196 -62 c11 -21 11 -22 -4 -9 -10 7 -17 17 -17
22 0 15 9 10 21 -13z"/>
<path d="M8945 5770 c3 -5 8 -10 11 -10 2 0 4 5 4 10 0 6 -5 10 -11 10 -5 0
-7 -4 -4 -10z"/>
<path d="M9620 5506 c0 -2 8 -10 18 -17 15 -13 16 -12 3 4 -13 16 -21 21 -21
13z"/>
<path d="M6415 8530 c-9 -16 -13 -30 -11 -30 3 0 12 14 21 30 9 17 13 30 11
30 -3 0 -12 -13 -21 -30z"/>
<path d="M9401 8514 c0 -11 3 -14 6 -6 3 7 2 16 -1 19 -3 4 -6 -2 -5 -13z"/>
<path d="M9411 8474 c0 -11 3 -14 6 -6 3 7 2 16 -1 19 -3 4 -6 -2 -5 -13z"/>
<path d="M6102 7640 c0 -14 2 -19 5 -12 2 6 2 18 0 25 -3 6 -5 1 -5 -13z"/>
<path d="M9412 7350 c0 -19 2 -27 5 -17 2 9 2 25 0 35 -3 9 -5 1 -5 -18z"/>
<path d="M9375 7230 c-4 -17 -5 -34 -2 -36 2 -3 7 10 11 27 3 18 4 34 2 36 -2
3 -7 -10 -11 -27z"/>
</g>
</svg>
